<svg id="visual" viewBox="0 0 900 600" width="900" height="600" xmlns="http://www.w3.org/2000/svg" xmlns:xlink="http://www.w3.org/1999/xlink" version="1.1"><path d="M0 175L13.7 160C27.3 145 54.7 115 82 106C109.3 97 136.7 109 163.8 126C191 143 218 165 245.2 169C272.3 173 299.7 159 327 145C354.3 131 381.7 117 409 104C436.3 91 463.7 79 491 86C518.3 93 545.7 119 573 136C600.3 153 627.7 161 654.8 151C682 141 709 113 736.2 104C763.3 95 790.7 105 818 115C845.3 125 872.7 135 886.3 140L900 145L900 0L886.3 0C872.7 0 845.3 0 818 0C790.7 0 763.3 0 736.2 0C709 0 682 0 654.8 0C627.7 0 600.3 0 573 0C545.7 0 518.3 0 491 0C463.7 0 436.3 0 409 0C381.7 0 354.3 0 327 0C299.7 0 272.3 0 245.2 0C218 0 191 0 163.8 0C136.7 0 109.3 0 82 0C54.7 0 27.3 0 13.7 0L0 0Z" fill="#6198ff"></path><path d="M0 223L13.7 214C27.3 205 54.7 187 82 176C109.3 165 136.7 161 163.8 173C191 185 218 213 245.2 227C272.3 241 299.7 241 327 227C354.3 213 381.7 185 409 170C436.3 155 463.7 153 491 162C518.3 171 545.7 191 573 202C600.3 213 627.7 215 654.8 209C682 203 709 189 736.2 179C763.3 169 790.7 163 818 175C845.3 187 872.7 217 886.3 232L900 247L900 143L886.3 138C872.7 133 845.3 123 818 113C790.7 103 763.3 93 736.2 102C709 111 682 139 654.8 149C627.7 159 600.3 151 573 134C545.7 117 518.3 91 491 84C463.7 77 436.3 89 409 102C381.7 115 354.3 129 327 143C299.7 157 272.3 171 245.2 167C218 163 191 141 163.8 124C136.7 107 109.3 95 82 104C54.7 113 27.3 143 13.7 158L0 173Z" fill="#3c80ff"></path><path d="M0 337L13.7 326C27.3 315 54.7 293 82 289C109.3 285 136.7 299 163.8 314C191 329 218 345 245.2 349C272.3 353 299.7 345 327 351C354.3 357 381.7 377 409 373C436.3 369 463.7 341 491 322C518.3 303 545.7 293 573 301C600.3 309 627.7 335 654.8 334C682 333 709 305 736.2 308C763.3 311 790.7 345 818 372C845.3 399 872.7 419 886.3 429L900 439L900 245L886.3 230C872.7 215 845.3 185 818 173C790.7 161 763.3 167 736.2 177C709 187 682 201 654.8 207C627.7 213 600.3 211 573 200C545.7 189 518.3 169 491 160C463.7 151 436.3 153 409 168C381.7 183 354.3 211 327 225C299.7 239 272.3 239 245.2 225C218 211 191 183 163.8 171C136.7 159 109.3 163 82 174C54.7 185 27.3 203 13.7 212L0 221Z" fill="#0066ff"></path><path d="M0 511L13.7 513C27.3 515 54.7 519 82 516C109.3 513 136.7 503 163.8 507C191 511 218 529 245.2 533C272.3 537 299.7 527 327 526C354.3 525 381.7 533 409 532C436.3 531 463.7 521 491 514C518.3 507 545.7 503 573 503C600.3 503 627.7 507 654.8 507C682 507 709 503 736.2 504C763.3 505 790.7 511 818 512C845.3 513 872.7 509 886.3 507L900 505L900 437L886.3 427C872.7 417 845.3 397 818 370C790.7 343 763.3 309 736.2 306C709 303 682 331 654.8 332C627.7 333 600.3 307 573 299C545.7 291 518.3 301 491 320C463.7 339 436.3 367 409 371C381.7 375 354.3 355 327 349C299.7 343 272.3 351 245.2 347C218 343 191 327 163.8 312C136.7 297 109.3 283 82 287C54.7 291 27.3 313 13.7 324L0 335Z" fill="#0059dd"></path><path d="M0 601L13.7 601C27.3 601 54.7 601 82 601C109.3 601 136.7 601 163.8 601C191 601 218 601 245.2 601C272.3 601 299.7 601 327 601C354.3 601 381.7 601 409 601C436.3 601 463.7 601 491 601C518.3 601 545.7 601 573 601C600.3 601 627.7 601 654.8 601C682 601 709 601 736.2 601C763.3 601 790.7 601 818 601C845.3 601 872.7 601 886.3 601L900 601L900 503L886.3 505C872.7 507 845.3 511 818 510C790.7 509 763.3 503 736.2 502C709 501 682 505 654.8 505C627.7 505 600.3 501 573 501C545.7 501 518.3 505 491 512C463.7 519 436.3 529 409 530C381.7 531 354.3 523 327 524C299.7 525 272.3 535 245.2 531C218 527 191 509 163.8 505C136.7 501 109.3 511 82 514C54.7 517 27.3 513 13.7 511L0 509Z" fill="#004cbb"></path></svg>